# generated from PmQm by Jehee Lee
:FULLY-SPECIFIED
:DEGREES
18
root -154.2967762 40.1031 -63.17170382 -171.8035546 42.41505132 -177.9249065
RightUpLeg -10.25220563 2.55148629 0.6491911174
RightLeg 12.36372038 0 0
RightFoot -9.7992863 6.901529959 -1.360694533
RightToes 2.15368e-009 -1.59028e-015 9.93923e-017
Spine -10.3686 -1.65348 0.379063
Spine1 16.9011 -2.72798 2.48051
HEad -12.2644 0.54942 2.09389
LeftShoulder1 9.93923e-017 0 1.22299e-017
LeftArm 8.59401 41.4487 -85.2613
LeftForeArm -37.3276 -46.6836 28.2626
LeftHand 1.09785 8.7379 -9.21705
RightShoulder 1.98785e-016 -4.96962e-017 1.55301e-017
RightArm 24.0103 -45.0872 84.5312
RightForeArm -51.6187 22.7537 -21.5183
RightHand 1.20756 -11.5264 -3.15672
LeftUpLeg -10.97935805 0.7921139112 4.197331064
LeftLeg 14.25206872 0 0
LeftFoot -10.25985353 -10.35894281 -1.65206546
LeftToes -1.72801e-010 9.79356e-011 1.69352e-011
19
root -154.2664408 40.0362 -63.14427108 -171.4413287 42.28602567 -178.0704807
RightUpLeg -11.48608776 2.819559137 0.4350544263
RightLeg 14.02098667 0 0
RightFoot -10.99006353 6.468808157 -0.958020926
RightToes 2.15368e-009 -1.59028e-015 9.93923e-017
Spine -9.48884 -1.64861 0.254052
Spine1 16.7199 -2.8252 2.87645
HEad -11.7606 1.37766 1.69875
LeftShoulder1 9.93923e-017 0 1.22299e-017
LeftArm 6.8576 41.4458 -85.9241
LeftForeArm -37.5914 -49.1783 30.1177
LeftHand 1.10369 8.53727 -7.78579
RightShoulder 1.98785e-016 -4.96962e-017 1.55301e-017
RightArm 22.6015 -44.7071 84.5953
RightForeArm -51.2525 23.8652 -22.2345
RightHand 1.23459 -11.9023 -2.76016
LeftUpLeg -12.08915746 0.3837751261 4.269990803
LeftLeg 15.54927293 0 0
LeftFoot -11.02538223 -10.09794675 -1.924620716
LeftToes -1.72801e-010 9.79356e-011 1.69352e-011
20
root -154.2042589 39.9131 -63.13766722 -171.1861944 42.20648867 -178.1333616
RightUpLeg -12.89111863 3.410160705 0.2243176434
RightLeg 16.48739366 0 0
RightFoot -12.54987428 5.791752756 -0.8434134485
RightToes 2.15368e-009 -1.59028e-015 9.93923e-017
Spine -8.63023 -1.64144 0.187483
Spine1 16.7986 -2.95283 3.33175
HEad -11.1119 2.51119 1.16842
LeftShoulder1 9.93923e-017 0 1.22299e-017
LeftArm 6.06758 41.3664 -86.3721
LeftForeArm -37.2383 -50.3381 31.0939
LeftHand 1.094 8.23664 -6.61677
RightShoulder 1.98785e-016 -4.96962e-017 1.55301e-017
RightArm 21.3181 -43.9281 84.9222
RightForeArm -50.2416 25.089 -23.0735
RightHand 1.29435 -12.1088 -3.47122
LeftUpLeg -13.53832767 -1.149562396 4.608495297
LeftLeg 18.03132308 0 0
LeftFoot -12.3342117 -8.721112675 -2.259549096
LeftToes -1.72801e-010 9.79356e-011 1.69352e-011
21
root -154.1063648 39.6905 -63.15825632 -170.6460825 41.93236289 -177.7577108
RightUpLeg -14.675044 4.508831313 0.3026782906
RightLeg 19.93538313 0 0
RightFoot -14.5678329 4.511202797 -0.8030649184
RightToes 2.15368e-009 -1.59028e-015 9.93923e-017
Spine -7.96482 -1.67197 0.585543
Spine1 17.2381 -3.18923 3.84114
HEad -10.6061 3.51811 0.595612
LeftShoulder1 9.93923e-017 0 1.22299e-017
LeftArm 6.01321 41.3492 -86.6583
LeftForeArm -36.3641 -50.4818 31.2865
LeftHand 1.0669 7.8924 -6.38679
RightShoulder 1.98785e-016 -4.96962e-017 1.55301e-017
RightArm 19.5862 -42.9018 85.2233
RightForeArm -48.2194 26.9753 -24.4346
RightHand 1.27649 -11.6737 -4.22129
LeftUpLeg -15.9236894 -5.47632814 5.62897677
LeftLeg 22.18821807 0 0
LeftFoot -14.5359721 -4.787780826 -2.666518632
LeftToes -1.72801e-010 9.79356e-011 1.69352e-011
22
root -153.9939021 39.3363 -63.18577051 -169.8969489 41.70281264 -176.8108593
RightUpLeg -16.75985414 6.236398635 0.7479043021
RightLeg 24.40629573 0 0
RightFoot -17.04265816 2.656911803 -0.7296661442
RightToes 2.15368e-009 -1.59028e-015 9.93923e-017
Spine -7.0465 -1.55006 1.50256
Spine1 17.7529 -3.28881 4.31574
HEad -10.6404 4.0519 0.155401
LeftShoulder1 9.93923e-017 0 1.22299e-017
LeftArm 6.63769 41.6264 -86.6846
LeftForeArm -35.8651 -50.1916 31.0825
LeftHand 1.04161 7.59443 -6.35513
RightShoulder 1.98785e-016 -4.96962e-017 1.55301e-017
RightArm 17.471 -41.8044 85.2483
RightForeArm -46.1782 30.0933 -26.7397
RightHand 1.17339 -10.9902 -3.90538
LeftUpLeg -18.98371979 -10.08802731 7.301563445
LeftLeg 27.78919433 0 0
LeftFoot -17.15595433 -0.4702267384 -3.593957861
LeftToes -1.72801e-010 9.79356e-011 1.69352e-011
23
root -153.8779992 38.8716 -63.20748019 -169.6295826 41.74542064 -175.6794348
RightUpLeg -18.47495288 7.991242339 1.359300095
RightLeg 29.38912201 0 0
RightFoot -19.68944175 0.8763112137 -1.034072854
RightToes 2.15368e-009 -1.59028e-015 9.93923e-017
Spine -5.32676 -1.1752 2.33425
Spine1 18.1915 -3.1226 4.93387
HEad -11.5123 4.06819 0.0281308
LeftShoulder1 9.93923e-017 0 1.22299e-017
LeftArm 7.86785 42.3014 -86.3297
LeftForeArm -35.8163 -49.7796 30.7434
LeftHand 1.02834 7.42168 -5.82637
RightShoulder 1.98785e-016 -4.96962e-017 1.55301e-017
RightArm 15.6911 -40.4044 84.9637
RightForeArm -45.2257 34.4662 -30.1862
RightHand 1.13345 -10.8863 -3.24667
LeftUpLeg -21.75934123 -9.329864046 9.161919212
LeftLeg 34.64200977 0 0
LeftFoot -18.8216945 -1.178483491 -4.379586022
LeftToes -1.72801e-010 9.79356e-011 1.69352e-011
24
root -153.7205922 38.3774 -63.26087393 -170.1944752 41.79446988 -174.8225788
RightUpLeg -19.2091356 8.732132879 1.936535766
RightLeg 34.05969467 0 0
RightFoot -22.14622543 -0.05913813812 -1.950535042
RightToes 2.15368e-009 -1.59028e-015 9.93923e-017
Spine -3.06407 -0.759522 2.78329
Spine1 18.8093 -2.89347 5.73142
HEad -13.1818 3.8182 0.328628
LeftShoulder1 9.93923e-017 0 1.22299e-017
LeftArm 9.51184 43.5939 -85.3759
LeftForeArm -35.0182 -49.4177 30.5159
LeftHand 1.007 7.18268 -4.76311
RightShoulder 1.98785e-016 -4.96962e-017 1.55301e-017
RightArm 14.1217 -38.4163 84.6382
RightForeArm -45.3717 39.8067 -35.0042
RightHand 1.2051 -11.4382 -3.32592
LeftUpLeg -24.32421654 -8.664739824 10.88747241
LeftLeg 42.45527765 0 0
LeftFoot -18.33553874 -1.759502448 -5.014257057
LeftToes -1.72801e-010 9.79356e-011 1.69352e-011
25
root -153.4337652 37.9525 -63.43175993 -171.0035533 41.65019664 -174.2819245
RightUpLeg -19.02642545 8.79474878 2.476661392
RightLeg 37.62396684 0 0
RightFoot -24.28146915 -0.4992842191 -2.818937546
RightToes 2.15368e-009 -1.59028e-015 9.93923e-017
Spine -1.26866 -0.494807 3.34115
Spine1 19.737 -2.68114 6.22277
HEad -14.9637 3.57245 0.938705
LeftShoulder1 9.93923e-017 0 1.22299e-017
LeftArm 11.369 46.2754 -83.3006
LeftForeArm -33.1089 -49.8804 31.0584
LeftHand 0.953355 6.70196 -3.23503
RightShoulder 1.98785e-016 -4.96962e-017 1.55301e-017
RightArm 11.9397 -36.3514 84.5897
RightForeArm -46.9454 46.1109 -42.0733
RightHand 1.2849 -12.007 -3.52902
LeftUpLeg -26.95196388 -8.226116322 12.36517995
LeftLeg 50.43710985 0 0
LeftFoot -16.16416326 -1.684465795 -3.913870973
LeftToes -1.72801e-010 9.79356e-011 1.69352e-011
26
root -152.9496573 37.7122 -63.79009414 -171.360114 41.67686856 -174.0855958
RightUpLeg -18.12463677 8.476979887 2.860779236
RightLeg 39.16108097 0 0
RightFoot -25.95405306 -0.3466007582 -3.293258375
RightToes 2.15368e-009 -1.59028e-015 9.93923e-017
Spine -0.696334 -0.184436 4.09461
Spine1 20.5165 -2.15556 5.95964
HEad -15.7468 3.24328 1.49595
LeftShoulder1 9.93923e-017 0 1.22299e-017
LeftArm 13.6329 51.1696 -79.2998
LeftForeArm -32.0185 -52.3313 33.3204
LeftHand 0.896226 6.28766 -1.67595
RightShoulder 1.98785e-016 -4.96962e-017 1.55301e-017
RightArm 9.20341 -35.3637 84.7917
RightForeArm -52.2006 53.2682 -53.3415
RightHand 1.29956 -12.3919 -2.90636
LeftUpLeg -29.4816596 -7.328875891 13.29857691
LeftLeg 57.00994791 0 0
LeftFoot -14.1946575 -0.985953791 -1.336961213
LeftToes -1.72801e-010 9.79356e-011 1.69352e-011
27
root -152.2821842 37.7538 -64.33378553 -171.2982935 42.27804936 -174.5900004
RightUpLeg -16.55020537 8.595291858 2.770077941
RightLeg 38.00595649 0 0
RightFoot -26.59498051 -0.08966173045 -3.499829512
RightToes 2.15368e-009 -1.59028e-015 9.93923e-017
Spine -1.27263 0.54459 4.32022
Spine1 20.5886 -1.00886 5.10786
HEad -15.0706 2.40501 1.74978
LeftShoulder1 9.93923e-017 0 1.22299e-017
LeftArm 17.6185 57.7729 -72.3517
LeftForeArm -34.2397 -56.7505 37.9102
LeftHand 0.897261 6.33726 -1.00876
RightShoulder 1.98785e-016 -4.96962e-017 1.55301e-017
RightArm 6.87328 -35.9804 84.9653
RightForeArm -64.1734 59.6325 -71.0906
RightHand 1.30925 -12.8351 -2.13905
LeftUpLeg -31.4720041 -5.72158904 13.16733929
LeftLeg 60.74954683 0 0
LeftFoot -13.45272143 -0.2762049441 0.5210369328
LeftToes -1.72801e-010 9.79356e-011 1.69352e-011
28
root -151.494613 38.0398 -65.02469301 -171.0834752 43.15609746 -175.8416864
RightUpLeg -14.57613846 9.206639958 2.159479161
RightLeg 34.83698576 0 0
RightFoot -25.68259522 0.09536070251 -3.432259186
RightToes 2.15368e-009 -1.59028e-015 9.93923e-017
Spine -2.47365 1.65019 4.00376
Spine1 20.0247 0.626069 3.94357
HEad -13.7872 0.81643 1.81849
LeftShoulder1 9.93923e-017 0 1.22299e-017
LeftArm 25.0506 63.8702 -61.681
LeftForeArm -39.8106 -61.3416 44.17
LeftHand 0.959364 6.80246 -1.25019
RightShoulder 1.98785e-016 -4.96962e-017 1.55301e-017
RightArm 5.42963 -37.4674 85.0325
RightForeArm -81.1405 62.5354 -93.0952
RightHand 1.35923 -13.186 -2.31396
LeftUpLeg -32.96104899 -4.054463652 11.98386219
LeftLeg 61.37116388 0 0
LeftFoot -13.09018875 -0.5058763083 0.3895675195
LeftToes -1.72801e-010 9.79356e-011 1.69352e-011
29
root -150.6425238 38.4503 -65.84559707 -170.4981085 43.8154679 -177.0901175
RightUpLeg -12.66211181 8.820283488 1.390747458
RightLeg 31.20263849 0 0
RightFoot -23.09266763 1.396314905 -2.784027073
RightToes 2.15368e-009 -1.59028e-015 9.93923e-017
Spine -3.82298 2.7746 4.31499
Spine1 19.3477 2.43817 2.16188
HEad -13.1201 -1.23937 1.92259
LeftShoulder1 9.93923e-017 0 1.22299e-017
LeftArm 34.6983 67.4429 -49.0572
LeftForeArm -45.5592 -64.4275 49.8081
LeftHand 1.0219 7.28101 -1.27361
RightShoulder 1.98785e-016 -4.96962e-017 1.55301e-017
RightArm 4.58315 -38.758 85.1427
RightForeArm -95.4377 62.1754 -111.318
RightHand 1.40923 -13.1897 -3.13137
LeftUpLeg -33.89706193 -2.905069655 10.43384921
LeftLeg 59.16315737 -1.148272076 0.2926845891
LeftFoot -12.03218725 -1.625060644 -1.264327631
LeftToes -1.72801e-010 9.79356e-011 1.69352e-011
